<?xml version="1.0" standalone="no"?>
<!DOCTYPE svg PUBLIC "-//W3C//DTD SVG 20010904//EN"
 "http://www.w3.org/TR/2001/REC-SVG-20010904/DTD/svg10.dtd">
<svg version="1.0" xmlns="http://www.w3.org/2000/svg"
 width="2400.000000pt" height="2400.000000pt" viewBox="0 0 2400.000000 2400.000000"
 preserveAspectRatio="xMidYMid meet">

<g transform="translate(0.000000,2400.000000) scale(0.100000,-0.100000)"
fill="#000000" stroke="none">
<path d="M4493 16493 c3 -6213 -1 -5772 52 -6398 102 -1203 332 -2196 712
-3075 100 -232 355 -736 478 -945 456 -778 1080 -1497 1875 -2160 878 -733
1909 -1298 3226 -1768 358 -128 1054 -350 1170 -373 67 -13 1021 303 1574 521
1044 413 1922 906 2650 1490 930 746 1636 1559 2123 2447 117 213 301 580 382
763 465 1047 710 2185 765 3545 6 154 10 2379 10 5968 l0 5722 -7510 0 -7510
0 3 -5737z m14742 -208 c0 -5858 1 -5731 -41 -6195 -206 -2308 -1127 -4228
-2724 -5674 -1121 -1015 -2543 -1773 -4264 -2271 l-179 -52 -186 54 c-1085
314 -2016 710 -2851 1211 -1244 747 -2253 1742 -2947 2907 -595 999 -976 2136
-1137 3395 -23 179 -35 296 -68 670 -9 101 -12 1572 -15 5858 l-3 5722 7207
-2 7208 -3 0 -5620z"/>
<path d="M16465 21014 c-682 -70 -1218 -299 -1634 -699 -476 -457 -687 -1010
-651 -1713 30 -584 198 -1022 519 -1355 352 -365 822 -580 1426 -653 524 -63
1424 17 1761 157 41 17 76 35 79 39 3 5 28 121 55 257 27 136 52 258 55 271 5
21 2 22 -45 22 -45 0 -79 -14 -313 -133 -272 -138 -516 -242 -653 -278 -172
-46 -438 -35 -644 27 -404 121 -787 482 -1014 954 -127 265 -186 536 -186 857
0 497 164 934 493 1319 316 369 624 533 1032 550 105 5 163 2 231 -9 161 -29
444 -140 578 -227 75 -49 250 -196 321 -269 27 -28 48 -41 66 -41 32 0 20 -33
123 346 36 133 66 246 66 251 0 5 -93 48 -207 96 -276 115 -379 153 -476 178
-179 46 -228 51 -592 54 -192 1 -368 1 -390 -1z"/>
<path d="M5922 19273 c4 -1906 -3 -1737 78 -1908 104 -218 284 -373 625 -540
438 -214 836 -307 1320 -308 476 -1 837 98 1165 318 248 167 434 374 554 617
94 191 140 370 156 603 5 71 9 757 10 1523 l0 1392 -275 0 -275 0 -2 -1572 -3
-1573 -23 -80 c-47 -166 -132 -304 -266 -433 -178 -171 -383 -277 -646 -333
-142 -31 -498 -34 -628 -6 -180 39 -317 108 -442 225 -196 181 -313 405 -349
667 -8 51 -11 572 -11 1591 l0 1514 -495 0 -495 0 2 -1697z"/>
<path d="M10430 18765 l0 -2145 984 0 c571 0 1037 4 1112 10 310 24 564 104
764 240 69 47 244 204 318 285 131 143 230 342 273 550 18 86 16 295 -4 377
-50 207 -175 381 -383 535 -216 159 -439 231 -797 255 l-178 12 3 25 c3 23 10
26 108 47 214 44 432 132 597 240 328 213 503 416 549 637 35 162 -18 355
-145 540 -67 97 -206 250 -265 292 -121 86 -332 173 -524 217 -97 22 -102 22
-1254 25 l-1158 4 0 -2146z m1395 1815 c381 -34 679 -230 776 -510 30 -88 38
-265 15 -372 -57 -279 -237 -503 -485 -604 -107 -43 -209 -54 -497 -54 l-264
0 0 775 0 775 173 0 c94 0 222 -5 282 -10z m239 -1886 c318 -82 597 -447 622
-814 7 -93 -8 -241 -33 -335 -23 -88 -93 -231 -148 -303 -92 -122 -243 -219
-410 -264 -72 -19 -112 -22 -402 -26 l-323 -4 0 881 0 881 316 0 c256 0 328
-3 378 -16z"/>
<path d="M7720 16064 c-316 -28 -485 -72 -894 -233 -350 -138 -524 -182 -788
-197 l-118 -7 0 -493 0 -494 33 0 c75 0 270 22 372 41 143 27 251 62 535 174
443 176 615 213 1025 222 421 9 710 -38 1060 -173 477 -183 530 -201 722 -235
94 -17 159 -22 323 -22 343 0 528 40 915 198 430 175 639 222 1035 232 486 12
746 -38 1265 -245 304 -121 473 -164 717 -184 113 -8 181 -8 290 1 257 21 384
55 760 202 445 174 636 215 1038 226 465 12 712 -33 1170 -215 418 -166 542
-198 848 -218 l102 -6 0 494 0 494 -152 12 c-266 20 -399 55 -758 197 -341
135 -506 183 -745 215 -134 18 -477 24 -625 11 -326 -28 -494 -72 -930 -241
-124 -48 -257 -97 -297 -109 -350 -104 -764 -105 -1108 -2 -55 17 -176 60
-270 97 -371 146 -595 211 -840 244 -138 18 -470 24 -626 11 -304 -26 -497
-76 -884 -231 -121 -49 -266 -102 -321 -118 -298 -89 -666 -104 -977 -41 -133
27 -224 56 -487 159 -490 190 -671 229 -1100 235 -135 1 -265 1 -290 -1z"/>
<path d="M7725 14414 c-308 -26 -508 -78 -900 -234 -244 -97 -344 -130 -485
-159 -103 -21 -282 -41 -367 -41 l-53 0 0 -467 0 -466 143 6 c254 11 399 43
773 172 292 101 458 146 655 177 126 19 183 22 464 22 256 0 344 -3 440 -17
251 -38 405 -78 698 -183 286 -102 482 -153 655 -170 l72 -7 -1 34 c0 19 -23
241 -52 493 l-52 460 -90 13 c-139 20 -264 55 -517 147 -366 132 -499 168
-738 201 -111 15 -536 28 -645 19z"/>
<path d="M11605 14395 c-217 -41 -411 -99 -705 -210 -329 -124 -495 -169 -746
-200 l-51 -6 163 -461 c89 -253 165 -462 168 -465 11 -11 244 71 446 157 319
136 436 173 650 206 l110 17 5 31 c5 31 105 932 105 948 0 11 -5 10 -145 -17z"/>
<path d="M12250 14411 c0 -16 99 -900 106 -942 l5 -37 92 -11 c230 -29 407
-82 742 -221 204 -84 420 -160 428 -149 2 2 75 207 162 454 87 248 160 455
162 461 3 8 -26 16 -84 23 -48 7 -144 26 -213 42 -119 29 -176 49 -579 204
-254 97 -485 152 -758 181 -44 5 -63 3 -63 -5z"/>
<path d="M15865 14414 c-368 -37 -505 -69 -890 -211 -248 -91 -447 -147 -562
-158 -40 -4 -73 -9 -73 -10 0 -9 -101 -909 -106 -944 l-6 -44 124 6 c195 11
331 44 622 154 480 180 673 218 1126 218 462 0 649 -33 1123 -202 336 -119
519 -159 765 -170 l142 -6 0 495 0 495 -147 6 c-250 10 -358 34 -798 182 -466
156 -615 184 -1025 189 -140 2 -273 2 -295 0z"/>
<path d="M7690 12759 c-241 -21 -442 -67 -680 -154 -539 -198 -656 -225 -965
-225 l-125 0 0 -490 0 -490 90 0 c216 0 439 43 714 137 657 224 766 243 1395
243 262 0 332 3 328 13 -2 6 -64 229 -138 495 l-134 482 -195 -1 c-107 -1
-238 -5 -290 -10z"/>
<path d="M11390 12710 c-280 -89 -719 -255 -727 -276 -4 -11 302 -790 317
-807 4 -5 79 14 166 42 88 27 208 64 268 80 59 16 110 32 113 34 2 3 15 200
28 438 13 239 26 460 28 492 2 31 1 57 -2 56 -3 0 -89 -27 -191 -59z"/>
<path d="M12468 12277 c30 -270 56 -493 57 -495 1 -1 59 -18 129 -37 70 -19
192 -55 272 -81 80 -25 147 -44 148 -43 7 9 327 872 324 874 -2 1 -31 8 -66
14 -35 7 -120 32 -190 56 -70 24 -192 66 -272 93 -132 45 -311 91 -416 106
l-40 6 54 -493z"/>
<path d="M15717 12276 l-165 -494 432 -5 c459 -5 546 -12 773 -63 147 -33 222
-55 498 -152 334 -116 556 -162 781 -162 l94 0 0 489 0 489 -22 6 c-13 3 -58
6 -100 6 -152 0 -379 40 -573 99 -33 11 -152 51 -265 91 -414 145 -678 190
-1111 190 l-177 0 -165 -494z"/>
<path d="M8680 12707 c0 -3 159 -275 354 -604 l353 -598 74 -22 c148 -46 310
-75 447 -80 125 -6 132 -5 132 13 0 10 -36 230 -79 488 -53 320 -82 471 -92
477 -8 5 -48 9 -89 9 -157 1 -396 49 -585 119 -44 16 -172 66 -285 111 -113
45 -211 84 -217 87 -7 3 -13 3 -13 0z"/>
<path d="M15280 12647 c-19 -5 -156 -49 -305 -98 -387 -126 -472 -145 -707
-157 -76 -5 -140 -11 -143 -14 -4 -3 -28 -205 -55 -449 -27 -244 -52 -464 -55
-488 l-7 -43 244 5 c227 5 279 10 378 37 l39 10 327 600 c180 330 325 602 323
604 -2 1 -20 -2 -39 -7z"/>
</g>
</svg>
